<?xml version="1.0" encoding="UTF-8"?>
<svg width="21px" height="16px" viewBox="0 0 21 16" version="1.1" xmlns="http://www.w3.org/2000/svg" xmlns:xlink="http://www.w3.org/1999/xlink">
    <!-- Generator: Sketch 53.2 (72643) - https://sketchapp.com -->
    <title>Shape</title>
    <desc>Created with Sketch.</desc>
    <g id="Screens" stroke="none" stroke-width="1" fill="none" fill-rule="evenodd">
        <g id="Index-(Background-Images)" transform="translate(-395.000000, -208.000000)" fill="#FFFFFF" fill-rule="nonzero">
            <g id="home-solid" transform="translate(395.000000, 208.000000)">
                <path d="M10.0489286,4.15214286 L3.46428571,9.57535714 L3.46428571,15.4285714 C3.46428571,15.7441627 3.720123,16 4.03571429,16 L8.03785714,15.9896429 C8.35233207,15.9880705 8.6064325,15.7326931 8.60642857,15.4182143 L8.60642857,12 C8.60642857,11.6844087 8.86226586,11.4285714 9.17785714,11.4285714 L11.4635714,11.4285714 C11.7791627,11.4285714 12.035,11.6844087 12.035,12 L12.035,15.4157143 C12.0345254,15.5675757 12.0945198,15.71338 12.2017349,15.8209302 C12.30895,15.9284803 12.4545664,15.9889293 12.6064286,15.9889286 L16.6071429,16 C16.9227341,16 17.1785714,15.7441627 17.1785714,15.4285714 L17.1785714,9.57142857 L10.5953571,4.15214286 C10.4358914,4.0236053 10.2083943,4.0236053 10.0489286,4.15214286 Z M20.45,7.83821429 L17.4642857,5.37714286 L17.4642857,0.430357143 C17.4642857,0.193663679 17.2724077,0.00178571429 17.0357143,0.00178571429 L15.0357143,0.00178571429 C14.7990208,0.00178571429 14.6071429,0.193663679 14.6071429,0.430357143 L14.6071429,3.02357143 L11.4096429,0.392857143 C10.7768116,-0.1278984 9.86390267,-0.1278984 9.23107143,0.392857143 L0.190714286,7.83821429 C0.10306881,7.91065591 0.0478042773,8.01495854 0.0370869429,8.12816039 C0.0263696086,8.24136223 0.0610780788,8.35418301 0.133571429,8.44178571 L1.04428571,9.54892857 C1.11658295,9.63683846 1.22088044,9.69237843 1.33417551,9.70329925 C1.44747059,9.71422006 1.56045647,9.67962461 1.64821429,9.60714286 L10.0489286,2.68785714 C10.2083943,2.55931958 10.4358914,2.55931958 10.5953571,2.68785714 L18.9964286,9.60714286 C19.0840313,9.67963621 19.1968521,9.71434468 19.3100539,9.70362734 C19.4232557,9.69291001 19.5275584,9.63764548 19.6,9.55 L20.5107143,8.44285714 C20.583134,8.35474417 20.6174441,8.24139874 20.6060488,8.12791458 C20.5946535,8.01443042 20.5384927,7.91016949 20.45,7.83821429 L20.45,7.83821429 Z" id="Shape"></path>
            </g>
        </g>
    </g>
</svg>